# Blender v2.79 (sub 0) OBJ File: 'ConveyorBelt.blend'
# www.blender.org
o Cube_Cube.001
v -0.770052 -0.366542 4.964721
v -0.770052 0.366542 4.866076
v -0.770052 -0.366542 -4.964721
v -0.770052 0.366542 -4.866076
v 0.770052 -0.366542 4.964721
v 0.770052 0.366542 4.866076
v 0.770052 -0.366542 -4.964721
v 0.770052 0.366542 -4.866076
v -0.770052 -0.293233 5.049810
v -0.770052 -0.219925 5.116539
v -0.770052 -0.146617 5.160101
v -0.770052 -0.073308 5.175689
v -0.770052 0.000000 5.175689
v -0.770052 0.073308 5.160101
v -0.770052 0.146617 5.116539
v -0.770052 0.219925 5.049810
v -0.770052 0.293233 4.964721
v -0.770052 0.293233 -4.964721
v -0.770052 0.219925 -5.049810
v -0.770052 0.146617 -5.116539
v -0.770052 0.073308 -5.160101
v -0.770052 -0.000000 -5.175689
v -0.770052 -0.073308 -5.175689
v -0.770052 -0.146617 -5.160101
v -0.770052 -0.219925 -5.116539
v -0.770052 -0.293233 -5.049810
v 0.770052 0.293233 -4.964721
v 0.770052 0.219925 -5.049810
v 0.770052 0.146617 -5.116539
v 0.770052 0.073308 -5.160101
v 0.770052 -0.000000 -5.175689
v 0.770052 -0.073308 -5.175689
v 0.770052 -0.146617 -5.160101
v 0.770052 -0.219925 -5.116539
v 0.770052 -0.293233 -5.049810
v 0.770052 0.293233 4.964721
v 0.770052 0.219925 5.049810
v 0.770052 0.146617 5.116539
v 0.770052 0.073308 5.160101
v 0.770052 -0.000000 5.175689
v 0.770052 -0.073308 5.175689
v 0.770052 -0.146617 5.160101
v 0.770052 -0.219925 5.116539
v 0.770052 -0.293233 5.049810
vt 0.360552 1.000006
vt 0.280755 1.000007
vt 0.280752 0.000057
vt 0.360550 0.000056
vt -6.117880 0.000075
vt -6.038083 0.000075
vt -6.038081 1.000024
vt -6.117879 1.000024
vt -6.648104 0.000075
vt -6.575181 0.000075
vt -6.575181 1.000025
vt -6.648104 1.000025
vt -6.510819 0.000075
vt -6.510819 1.000025
vt -6.455452 0.000075
vt -6.455452 1.000025
vt -6.406791 0.000075
vt -6.406789 1.000025
vt -6.359193 0.000075
vt -6.359192 1.000025
vt -6.310532 0.000075
vt -6.310531 1.000025
vt -6.255166 0.000075
vt -6.255166 1.000025
vt -6.190804 0.000075
vt -6.190802 1.000024
vt 0.890776 1.000006
vt 0.817853 1.000006
vt 0.817853 0.000056
vt 0.890776 0.000056
vt 0.753490 1.000006
vt 0.753490 0.000056
vt 0.698124 1.000006
vt 0.698124 0.000056
vt 0.649462 1.000006
vt 0.649461 0.000056
vt 0.601866 1.000006
vt 0.601865 0.000056
vt 0.553204 1.000006
vt 0.553203 0.000056
vt 0.497837 1.000006
vt 0.497836 0.000056
vt 0.433474 1.000006
vt 0.433474 0.000056
vt 7.337711 0.000055
vt 7.337711 1.000005
vn 0.0000 0.8026 -0.5965
vn 0.0000 0.8026 0.5965
vn 0.0000 -0.7576 0.6527
vn 0.0000 -0.6731 0.7395
vn 0.0000 -0.5108 0.8597
vn -0.0000 -0.2080 0.9781
vn 0.0000 0.0000 1.0000
vn 0.0000 0.2080 0.9781
vn 0.0000 0.5108 0.8597
vn 0.0000 0.6731 0.7395
vn 0.0000 0.7576 0.6527
vn 0.0000 -0.7576 -0.6527
vn 0.0000 -0.6731 -0.7395
vn 0.0000 -0.5108 -0.8597
vn 0.0000 -0.2080 -0.9781
vn 0.0000 0.0000 -1.0000
vn 0.0000 0.2080 -0.9781
vn 0.0000 0.5108 -0.8597
vn 0.0000 0.6731 -0.7395
vn 0.0000 0.7576 -0.6527
vn 0.0000 -1.0000 0.0000
vn 0.0000 1.0000 0.0000
s off
f 18/1/1 4/2/1 8/3/1 27/4/1
f 36/5/2 6/6/2 2/7/2 17/8/2
f 5/9/3 44/10/3 9/11/3 1/12/3
f 44/10/4 43/13/4 10/14/4 9/11/4
f 43/13/5 42/15/5 11/16/5 10/14/5
f 42/15/6 41/17/6 12/18/6 11/16/6
f 41/17/7 40/19/7 13/20/7 12/18/7
f 40/19/8 39/21/8 14/22/8 13/20/8
f 39/21/9 38/23/9 15/24/9 14/22/9
f 38/23/10 37/25/10 16/26/10 15/24/10
f 37/25/11 36/5/11 17/8/11 16/26/11
f 3/27/12 26/28/12 35/29/12 7/30/12
f 26/28/13 25/31/13 34/32/13 35/29/13
f 25/31/14 24/33/14 33/34/14 34/32/14
f 24/33/15 23/35/15 32/36/15 33/34/15
f 23/35/16 22/37/16 31/38/16 32/36/16
f 22/37/17 21/39/17 30/40/17 31/38/17
f 21/39/18 20/41/18 29/42/18 30/40/18
f 20/41/19 19/43/19 28/44/19 29/42/19
f 19/43/20 18/1/20 27/4/20 28/44/20
f 7/30/21 5/45/21 1/46/21 3/27/21
f 4/2/22 2/7/22 6/6/22 8/3/22
