# Blender v2.79 (sub 0) OBJ File: 'ConveyorBelt.blend'
# www.blender.org
g Cube.001_Cube.004
v 0.754973 -0.433242 4.983523
v 0.754973 0.443590 4.884505
v 0.754973 -0.433242 -4.983523
v 0.754973 0.443590 -4.884505
v 0.754230 0.313388 -5.066076
v 0.754230 0.235041 -5.152903
v 0.754230 0.156694 -5.220994
v 0.754230 0.078347 -5.265445
v 0.754230 -0.000000 -5.281352
v 0.754230 -0.078347 -5.281352
v 0.754230 -0.156694 -5.265445
v 0.754230 -0.235041 -5.220994
v 0.754230 -0.313388 -5.152903
v 0.754230 0.313388 5.066076
v 0.754230 0.235041 5.152903
v 0.754230 0.156694 5.220994
v 0.754230 0.078347 5.265445
v 0.754230 -0.000000 5.281352
v 0.754230 -0.078347 5.281352
v 0.754230 -0.156694 5.265445
v 0.754230 -0.235041 5.220994
v 0.754230 -0.313388 5.152903
v 0.795401 -0.433242 4.983523
v 0.795401 0.443590 4.884505
v 0.795401 -0.433242 -4.983523
v 0.795401 0.443590 -4.884505
v 0.796143 0.313388 -5.066076
v 0.796143 0.235041 -5.152903
v 0.796143 0.156694 -5.220994
v 0.796143 0.078347 -5.265445
v 0.796143 -0.000000 -5.281352
v 0.796143 -0.078347 -5.281352
v 0.796143 -0.156694 -5.265445
v 0.796143 -0.235041 -5.220994
v 0.796143 -0.313388 -5.152903
v 0.796143 0.313388 5.066076
v 0.796143 0.235041 5.152903
v 0.796143 0.156694 5.220994
v 0.796143 0.078347 5.265445
v 0.796143 -0.000000 5.281352
v 0.796143 -0.078347 5.281352
v 0.796143 -0.156694 5.265445
v 0.796143 -0.235041 5.220994
v 0.796143 -0.313388 5.152903
v 0.757222 -0.268649 -5.002515
v 0.757222 -0.290194 -4.918222
v 0.757222 -0.268649 5.002515
v 0.757222 -0.290194 4.918222
v 0.757222 0.290194 -4.820501
v 0.757222 0.268649 -4.918222
v 0.757222 0.201487 -5.002515
v 0.757222 0.134325 -5.068618
v 0.757222 0.067162 -5.111773
v 0.757222 -0.000000 -5.127215
v 0.757222 -0.067162 -5.127215
v 0.757222 -0.134325 -5.111773
v 0.757222 -0.201487 -5.068618
v 0.757222 0.290194 4.820501
v 0.757222 0.268649 4.918222
v 0.757222 0.201487 5.002515
v 0.757222 0.134325 5.068618
v 0.757222 0.067162 5.111773
v 0.757222 -0.000000 5.127215
v 0.757222 -0.067162 5.127215
v 0.757222 -0.134325 5.111773
v 0.757222 -0.201487 5.068618
v 0.793152 -0.268649 -5.002515
v 0.793152 -0.290194 -4.918222
v 0.793152 -0.268649 5.002515
v 0.793152 -0.290194 4.918222
v 0.793152 0.290194 -4.820501
v 0.793152 0.268649 -4.918222
v 0.793152 0.201487 -5.002515
v 0.793152 0.134325 -5.068618
v 0.793152 0.067162 -5.111773
v 0.793152 -0.000000 -5.127215
v 0.793152 -0.067162 -5.127215
v 0.793152 -0.134325 -5.111773
v 0.793152 -0.201487 -5.068618
v 0.793152 0.290194 4.820501
v 0.793152 0.268649 4.918222
v 0.793152 0.201487 5.002515
v 0.793152 0.134325 5.068618
v 0.793152 0.067162 5.111773
v 0.793152 -0.000000 5.127215
v 0.793152 -0.067162 5.127215
v 0.793152 -0.134325 5.111773
v 0.793152 -0.201487 5.068618
vt 0.000000 0.000000
vt 0.000000 0.000000
vt 0.000000 0.000000
vt 0.000000 0.000000
vt 0.000000 0.000000
vt 0.000000 0.000000
vt 0.000000 0.000000
vt 0.000000 0.000000
vt 0.000000 0.000000
vt 0.000000 0.000000
vt 0.000000 0.000000
vt 0.000000 0.000000
vt 0.000000 0.000000
vt 0.000000 0.000000
vt 0.000000 0.000000
vt 0.000000 0.000000
vt 0.000000 0.000000
vt 0.000000 0.000000
vt 0.000000 0.000000
vt 0.000000 0.000000
vt 0.000000 0.000000
vt 0.000000 0.000000
vt 0.000000 0.000000
vt 0.000000 0.000000
vt 0.000000 0.000000
vt 0.000000 0.000000
vt 0.000000 0.000000
vt 0.000000 0.000000
vt 0.000000 0.000000
vt 0.000000 0.000000
vt 0.000000 0.000000
vt 0.000000 0.000000
vt 0.000000 0.000000
vt 0.000000 0.000000
vt 0.000000 0.000000
vt 0.000000 0.000000
vt 0.000000 0.000000
vt 0.000000 0.000000
vt 0.000000 0.000000
vt 0.000000 0.000000
vt 0.000000 0.000000
vt 0.000000 0.000000
vt 0.000000 0.000000
vt 0.000000 0.000000
vt 0.000000 0.000000
vt 0.000000 0.000000
vt 0.000000 0.000000
vt 0.000000 0.000000
vt 0.000000 0.000000
vt 0.000000 0.000000
vt 0.000000 0.000000
vt 0.000000 0.000000
vt 0.000000 0.000000
vt 0.000000 0.000000
vt 0.000000 0.000000
vt 0.000000 0.000000
vt 0.000000 0.000000
vt 0.000000 0.000000
vt 0.000000 0.000000
vt 0.000000 0.000000
vt 0.000000 0.000000
vt 0.000000 0.000000
vt 0.000000 0.000000
vt 0.000000 0.000000
vt 0.000000 0.000000
vt 0.000000 0.000000
vt 0.000000 0.000000
vt 0.000000 0.000000
vt 0.000000 0.000000
vt 0.000000 0.000000
vt 0.000000 0.000000
vt 0.000000 0.000000
vt 0.000000 0.000000
vt 0.000000 0.000000
vt 0.000000 0.000000
vt 0.000000 0.000000
vt 0.000000 0.000000
vt 0.000000 0.000000
vt 0.000000 0.000000
vt 0.000000 0.000000
vt 0.000000 0.000000
vt 0.000000 0.000000
vt 0.000000 0.000000
vt 0.000000 0.000000
vt 0.000000 0.000000
vt 0.000000 0.000000
vt 0.000000 0.000000
vt 0.000000 0.000000
vn 0.0000 0.6560 0.7548
vn 0.0000 0.1990 -0.9800
vn 0.0000 1.0000 0.0000
vn 0.0000 0.4935 0.8698
vn 0.0000 0.0000 -1.0000
vn 0.0000 -0.8163 -0.5776
vn 0.0000 0.1990 0.9800
vn 0.0000 -0.1990 -0.9800
vn 0.0000 -0.8163 0.5776
vn 0.0000 0.0000 1.0000
vn 0.0000 -0.4935 -0.8698
vn 0.0000 0.8127 -0.5827
vn 0.0000 -0.1990 0.9800
vn 0.0000 -0.6560 -0.7548
vn 0.0000 0.7424 -0.6699
vn 0.0000 -0.4935 0.8698
vn 0.0000 0.8127 0.5827
vn 0.0000 0.6560 -0.7548
vn 0.0000 -0.6560 0.7548
vn 0.0000 0.7424 0.6699
vn 0.0000 0.4935 -0.8698
vn 0.0000 -1.0000 0.0000
vn 0.0000 -0.7015 -0.7127
vn 0.0000 -0.2241 0.9746
vn 0.0000 -0.5406 -0.8413
vn 0.0000 0.9689 0.2476
vn 0.0000 -0.2241 -0.9746
vn 0.0000 0.2241 0.9746
vn 0.0000 0.9689 -0.2476
vn 0.0000 0.5406 0.8413
vn 0.0000 -0.9765 0.2153
vn 0.0000 0.2241 -0.9746
vn 0.0000 0.7015 0.7127
vn 0.0000 -0.7821 0.6232
vn 0.0000 0.5406 -0.8413
vn 0.0000 -0.9765 -0.2153
vn 0.0000 -0.7015 0.7127
vn 0.0000 0.7015 -0.7127
vn 0.0000 -0.7821 -0.6232
vn 0.0000 -0.5406 0.8413
vn 0.9998 0.0041 0.0190
vn -0.9998 0.0041 -0.0190
vn -0.9997 -0.0156 0.0169
vn 0.9998 0.0106 0.0176
vn -0.9998 0.0106 -0.0176
vn -0.9998 -0.0110 0.0183
vn 0.9998 0.0147 0.0160
vn -0.9998 0.0147 -0.0160
vn -0.9998 -0.0042 0.0193
vn 0.9998 -0.0149 -0.0108
vn -0.9999 0.0157 0.0000
vn -0.9998 0.0000 0.0194
vn 0.9997 -0.0180 -0.0153
vn -0.9999 -0.0147 0.0000
vn -0.9998 0.0041 0.0190
vn 0.9997 -0.0156 -0.0169
vn 0.9998 0.0150 0.0113
vn -0.9998 0.0106 0.0176
vn 0.9998 -0.0110 -0.0183
vn 0.9998 0.0150 -0.0113
vn -0.9998 0.0147 0.0160
vn 0.9998 -0.0042 -0.0193
vn 0.9998 -0.0149 0.0108
vn -0.9998 -0.0149 -0.0108
vn 0.9998 0.0000 -0.0194
vn 0.9997 -0.0180 0.0153
vn -0.9997 -0.0180 -0.0153
vn 0.9998 0.0041 -0.0190
vn 0.9997 -0.0156 0.0169
vn -0.9997 -0.0156 -0.0169
vn 0.9998 0.0106 -0.0176
vn -0.9998 0.0150 0.0113
vn 0.9998 -0.0110 0.0183
vn -0.9998 -0.0110 -0.0183
vn 0.9998 0.0147 -0.0160
vn -0.9998 0.0150 -0.0113
vn 0.9998 -0.0042 0.0193
vn -0.9998 -0.0042 -0.0193
vn 0.9999 0.0157 0.0000
vn -0.9998 -0.0149 0.0108
vn 0.9998 0.0000 0.0194
vn -0.9998 0.0000 -0.0194
vn 0.9999 -0.0147 0.0000
vn -0.9997 -0.0180 0.0153
s off
f 16/1/1 38/2/1 37/3/1 15/4/1
f 9/5/2 8/6/2 30/7/2 31/8/2
f 2/9/3 24/10/3 26/11/3 4/12/3
f 17/13/4 39/14/4 38/2/4 16/1/4
f 10/15/5 9/5/5 31/8/5 32/16/5
f 3/17/6 13/18/6 35/19/6 25/20/6
f 18/21/7 40/22/7 39/14/7 17/13/7
f 11/23/8 10/15/8 32/16/8 33/24/8
f 1/25/9 23/26/9 44/27/9 22/28/9
f 19/29/10 41/30/10 40/22/10 18/21/10
f 12/31/11 11/23/11 33/24/11 34/32/11
f 5/33/12 4/12/12 26/11/12 27/34/12
f 20/35/13 42/36/13 41/30/13 19/29/13
f 13/18/14 12/31/14 34/32/14 35/19/14
f 6/37/15 5/33/15 27/34/15 28/38/15
f 21/39/16 43/40/16 42/36/16 20/35/16
f 14/41/17 36/42/17 24/10/17 2/9/17
f 7/43/18 6/37/18 28/38/18 29/44/18
f 22/28/19 44/27/19 43/40/19 21/39/19
f 15/4/20 37/3/20 36/42/20 14/41/20
f 8/6/21 7/43/21 29/44/21 30/7/21
f 3/17/22 25/20/22 23/26/22 1/25/22
f 61/45/23 60/46/23 82/47/23 83/48/23
f 54/49/24 76/50/24 75/51/24 53/52/24
f 58/53/22 49/54/22 71/55/22 80/56/22
f 62/57/25 61/45/25 83/48/25 84/58/25
f 55/59/10 77/60/10 76/50/10 54/49/10
f 46/61/26 68/62/26 67/63/26 45/64/26
f 63/65/27 62/57/27 84/58/27 85/66/27
f 56/67/28 78/68/28 77/60/28 55/59/28
f 48/69/29 47/70/29 69/71/29 70/72/29
f 64/73/5 63/65/5 85/66/5 86/74/5
f 57/75/30 79/76/30 78/68/30 56/67/30
f 50/77/31 72/78/31 71/55/31 49/54/31
f 65/79/32 64/73/32 86/74/32 87/80/32
f 45/64/33 67/63/33 79/76/33 57/75/33
f 51/81/34 73/82/34 72/78/34 50/77/34
f 66/83/35 65/79/35 87/80/35 88/84/35
f 59/85/36 58/53/36 80/56/36 81/86/36
f 52/87/37 74/88/37 73/82/37 51/81/37
f 47/70/38 66/83/38 88/84/38 69/71/38
f 60/46/39 59/85/39 81/86/39 82/47/39
f 53/52/40 75/51/40 74/88/40 52/87/40
f 46/61/3 48/69/3 70/72/3 68/62/3
f 32/16/41 77/60/41 78/68/41 33/24/41
f 20/35/42 19/29/42 64/73/42 65/79/42
f 7/43/43 52/87/43 51/81/43 6/37/43
f 33/24/44 78/68/44 79/76/44 34/32/44
f 21/39/45 20/35/45 65/79/45 66/83/45
f 8/6/46 53/52/46 52/87/46 7/43/46
f 34/32/47 79/76/47 67/63/47 35/19/47
f 22/28/48 21/39/48 66/83/48 47/70/48
f 9/5/49 54/49/49 53/52/49 8/6/49
f 24/10/50 36/42/50 81/86/50 80/56/50
f 3/17/51 1/25/51 48/69/51 46/61/51
f 10/15/52 55/59/52 54/49/52 9/5/52
f 36/42/53 37/3/53 82/47/53 81/86/53
f 2/9/54 4/12/54 49/54/54 58/53/54
f 11/23/55 56/67/55 55/59/55 10/15/55
f 37/3/56 38/2/56 83/48/56 82/47/56
f 35/19/57 67/63/57 68/62/57 25/20/57
f 12/31/58 57/75/58 56/67/58 11/23/58
f 38/2/59 39/14/59 84/58/59 83/48/59
f 44/27/60 23/26/60 70/72/60 69/71/60
f 13/18/61 45/64/61 57/75/61 12/31/61
f 39/14/62 40/22/62 85/66/62 84/58/62
f 26/11/63 71/55/63 72/78/63 27/34/63
f 14/41/64 2/9/64 58/53/64 59/85/64
f 40/22/65 41/30/65 86/74/65 85/66/65
f 27/34/66 72/78/66 73/82/66 28/38/66
f 15/4/67 14/41/67 59/85/67 60/46/67
f 41/30/68 42/36/68 87/80/68 86/74/68
f 28/38/69 73/82/69 74/88/69 29/44/69
f 16/1/70 15/4/70 60/46/70 61/45/70
f 42/36/71 43/40/71 88/84/71 87/80/71
f 3/17/72 46/61/72 45/64/72 13/18/72
f 29/44/73 74/88/73 75/51/73 30/7/73
f 17/13/74 16/1/74 61/45/74 62/57/74
f 43/40/75 44/27/75 69/71/75 88/84/75
f 1/25/76 22/28/76 47/70/76 48/69/76
f 30/7/77 75/51/77 76/50/77 31/8/77
f 18/21/78 17/13/78 62/57/78 63/65/78
f 23/26/79 25/20/79 68/62/79 70/72/79
f 5/33/80 50/77/80 49/54/80 4/12/80
f 31/8/81 76/50/81 77/60/81 32/16/81
f 19/29/82 18/21/82 63/65/82 64/73/82
f 26/11/83 24/10/83 80/56/83 71/55/83
f 6/37/84 51/81/84 50/77/84 5/33/84
g Cube.002
v -0.792122 -0.433242 4.983523
v -0.792122 0.443590 4.884505
v -0.792122 -0.433242 -4.983523
v -0.792122 0.443590 -4.884505
v -0.792865 0.313388 -5.066076
v -0.792865 0.235041 -5.152903
v -0.792865 0.156694 -5.220994
v -0.792865 0.078347 -5.265445
v -0.792865 -0.000000 -5.281352
v -0.792865 -0.078347 -5.281352
v -0.792865 -0.156694 -5.265445
v -0.792865 -0.235041 -5.220994
v -0.792865 -0.313388 -5.152903
v -0.792865 0.313388 5.066076
v -0.792865 0.235041 5.152903
v -0.792865 0.156694 5.220994
v -0.792865 0.078347 5.265445
v -0.792865 -0.000000 5.281352
v -0.792865 -0.078347 5.281352
v -0.792865 -0.156694 5.265445
v -0.792865 -0.235041 5.220994
v -0.792865 -0.313388 5.152903
v -0.751695 -0.433242 4.983523
v -0.751695 0.443590 4.884505
v -0.751695 -0.433242 -4.983523
v -0.751695 0.443590 -4.884505
v -0.750952 0.313388 -5.066076
v -0.750952 0.235041 -5.152903
v -0.750952 0.156694 -5.220994
v -0.750952 0.078347 -5.265445
v -0.750952 -0.000000 -5.281352
v -0.750952 -0.078347 -5.281352
v -0.750952 -0.156694 -5.265445
v -0.750952 -0.235041 -5.220994
v -0.750952 -0.313388 -5.152903
v -0.750952 0.313388 5.066076
v -0.750952 0.235041 5.152903
v -0.750952 0.156694 5.220994
v -0.750952 0.078347 5.265445
v -0.750952 -0.000000 5.281352
v -0.750952 -0.078347 5.281352
v -0.750952 -0.156694 5.265445
v -0.750952 -0.235041 5.220994
v -0.750952 -0.313388 5.152903
v -0.789873 -0.268649 -5.002515
v -0.789873 -0.290194 -4.918222
v -0.789873 -0.268649 5.002515
v -0.789873 -0.290194 4.918222
v -0.789873 0.290194 -4.820501
v -0.789873 0.268649 -4.918222
v -0.789873 0.201487 -5.002515
v -0.789873 0.134325 -5.068618
v -0.789873 0.067162 -5.111773
v -0.789873 -0.000000 -5.127215
v -0.789873 -0.067162 -5.127215
v -0.789873 -0.134325 -5.111773
v -0.789873 -0.201487 -5.068618
v -0.789873 0.290194 4.820501
v -0.789873 0.268649 4.918222
v -0.789873 0.201487 5.002515
v -0.789873 0.134325 5.068618
v -0.789873 0.067162 5.111773
v -0.789873 -0.000000 5.127215
v -0.789873 -0.067162 5.127215
v -0.789873 -0.134325 5.111773
v -0.789873 -0.201487 5.068618
v -0.753944 -0.268649 -5.002515
v -0.753944 -0.290194 -4.918222
v -0.753944 -0.268649 5.002515
v -0.753944 -0.290194 4.918222
v -0.753944 0.290194 -4.820501
v -0.753944 0.268649 -4.918222
v -0.753944 0.201487 -5.002515
v -0.753944 0.134325 -5.068618
v -0.753944 0.067162 -5.111773
v -0.753944 -0.000000 -5.127215
v -0.753944 -0.067162 -5.127215
v -0.753944 -0.134325 -5.111773
v -0.753944 -0.201487 -5.068618
v -0.753944 0.290194 4.820501
v -0.753944 0.268649 4.918222
v -0.753944 0.201487 5.002515
v -0.753944 0.134325 5.068618
v -0.753944 0.067162 5.111773
v -0.753944 -0.000000 5.127215
v -0.753944 -0.067162 5.127215
v -0.753944 -0.134325 5.111773
v -0.753944 -0.201487 5.068618
vt 0.000000 0.000000
vt 0.000000 0.000000
vt 0.000000 0.000000
vt 0.000000 0.000000
vt 0.000000 0.000000
vt 0.000000 0.000000
vt 0.000000 0.000000
vt 0.000000 0.000000
vt 0.000000 0.000000
vt 0.000000 0.000000
vt 0.000000 0.000000
vt 0.000000 0.000000
vt 0.000000 0.000000
vt 0.000000 0.000000
vt 0.000000 0.000000
vt 0.000000 0.000000
vt 0.000000 0.000000
vt 0.000000 0.000000
vt 0.000000 0.000000
vt 0.000000 0.000000
vt 0.000000 0.000000
vt 0.000000 0.000000
vt 0.000000 0.000000
vt 0.000000 0.000000
vt 0.000000 0.000000
vt 0.000000 0.000000
vt 0.000000 0.000000
vt 0.000000 0.000000
vt 0.000000 0.000000
vt 0.000000 0.000000
vt 0.000000 0.000000
vt 0.000000 0.000000
vt 0.000000 0.000000
vt 0.000000 0.000000
vt 0.000000 0.000000
vt 0.000000 0.000000
vt 0.000000 0.000000
vt 0.000000 0.000000
vt 0.000000 0.000000
vt 0.000000 0.000000
vt 0.000000 0.000000
vt 0.000000 0.000000
vt 0.000000 0.000000
vt 0.000000 0.000000
vt 0.000000 0.000000
vt 0.000000 0.000000
vt 0.000000 0.000000
vt 0.000000 0.000000
vt 0.000000 0.000000
vt 0.000000 0.000000
vt 0.000000 0.000000
vt 0.000000 0.000000
vt 0.000000 0.000000
vt 0.000000 0.000000
vt 0.000000 0.000000
vt 0.000000 0.000000
vt 0.000000 0.000000
vt 0.000000 0.000000
vt 0.000000 0.000000
vt 0.000000 0.000000
vt 0.000000 0.000000
vt 0.000000 0.000000
vt 0.000000 0.000000
vt 0.000000 0.000000
vt 0.000000 0.000000
vt 0.000000 0.000000
vt 0.000000 0.000000
vt 0.000000 0.000000
vt 0.000000 0.000000
vt 0.000000 0.000000
vt 0.000000 0.000000
vt 0.000000 0.000000
vt 0.000000 0.000000
vt 0.000000 0.000000
vt 0.000000 0.000000
vt 0.000000 0.000000
vt 0.000000 0.000000
vt 0.000000 0.000000
vt 0.000000 0.000000
vt 0.000000 0.000000
vt 0.000000 0.000000
vt 0.000000 0.000000
vt 0.000000 0.000000
vt 0.000000 0.000000
vt 0.000000 0.000000
vt 0.000000 0.000000
vt 0.000000 0.000000
vt 0.000000 0.000000
vn 0.0000 0.6560 0.7548
vn 0.0000 0.1990 -0.9800
vn 0.0000 1.0000 0.0000
vn 0.0000 0.4935 0.8698
vn 0.0000 0.0000 -1.0000
vn 0.0000 -0.8163 -0.5776
vn 0.0000 0.1990 0.9800
vn 0.0000 -0.1990 -0.9800
vn 0.0000 -0.8163 0.5776
vn 0.0000 0.0000 1.0000
vn 0.0000 -0.4935 -0.8698
vn 0.0000 0.8127 -0.5827
vn 0.0000 -0.1990 0.9800
vn 0.0000 -0.6560 -0.7548
vn 0.0000 0.7424 -0.6699
vn 0.0000 -0.4935 0.8698
vn 0.0000 0.8127 0.5827
vn 0.0000 0.6560 -0.7548
vn 0.0000 -0.6560 0.7548
vn 0.0000 0.7424 0.6699
vn 0.0000 0.4935 -0.8698
vn 0.0000 -1.0000 0.0000
vn 0.0000 -0.7015 -0.7127
vn 0.0000 -0.2241 0.9746
vn 0.0000 -0.5406 -0.8413
vn 0.0000 0.9689 0.2476
vn 0.0000 -0.2241 -0.9746
vn 0.0000 0.2241 0.9746
vn 0.0000 0.9689 -0.2476
vn 0.0000 0.5406 0.8413
vn 0.0000 -0.9765 0.2153
vn 0.0000 0.2241 -0.9746
vn 0.0000 0.7015 0.7127
vn 0.0000 -0.7821 0.6232
vn 0.0000 0.5406 -0.8413
vn 0.0000 -0.9765 -0.2153
vn 0.0000 -0.7015 0.7127
vn 0.0000 0.7015 -0.7127
vn 0.0000 -0.7821 -0.6232
vn 0.0000 -0.5406 0.8413
vn 0.9998 0.0041 0.0190
vn -0.9998 0.0041 -0.0190
vn -0.9997 -0.0156 0.0169
vn 0.9998 0.0106 0.0176
vn -0.9998 0.0106 -0.0176
vn -0.9998 -0.0110 0.0183
vn 0.9998 0.0147 0.0160
vn -0.9998 0.0147 -0.0160
vn -0.9998 -0.0042 0.0193
vn 0.9998 -0.0149 -0.0108
vn -0.9999 0.0157 0.0000
vn -0.9998 0.0000 0.0194
vn 0.9997 -0.0180 -0.0153
vn -0.9999 -0.0147 0.0000
vn -0.9998 0.0041 0.0190
vn 0.9997 -0.0156 -0.0169
vn 0.9998 0.0150 0.0113
vn -0.9998 0.0106 0.0176
vn 0.9998 -0.0110 -0.0183
vn 0.9998 0.0150 -0.0113
vn -0.9998 0.0147 0.0160
vn 0.9998 -0.0042 -0.0193
vn 0.9998 -0.0149 0.0108
vn -0.9998 -0.0149 -0.0108
vn 0.9998 0.0000 -0.0194
vn 0.9997 -0.0180 0.0153
vn -0.9997 -0.0180 -0.0153
vn 0.9998 0.0041 -0.0190
vn 0.9997 -0.0156 0.0169
vn -0.9997 -0.0156 -0.0169
vn 0.9998 0.0106 -0.0176
vn -0.9998 0.0150 0.0113
vn 0.9998 -0.0110 0.0183
vn -0.9998 -0.0110 -0.0183
vn 0.9998 0.0147 -0.0160
vn -0.9998 0.0150 -0.0113
vn 0.9998 -0.0042 0.0193
vn -0.9998 -0.0042 -0.0193
vn 0.9999 0.0157 0.0000
vn -0.9998 -0.0149 0.0108
vn 0.9998 0.0000 0.0194
vn -0.9998 0.0000 -0.0194
vn 0.9999 -0.0147 0.0000
vn -0.9997 -0.0180 0.0153
s off
f 104/89/85 126/90/85 125/91/85 103/92/85
f 97/93/86 96/94/86 118/95/86 119/96/86
f 90/97/87 112/98/87 114/99/87 92/100/87
f 105/101/88 127/102/88 126/90/88 104/89/88
f 98/103/89 97/93/89 119/96/89 120/104/89
f 91/105/90 101/106/90 123/107/90 113/108/90
f 106/109/91 128/110/91 127/102/91 105/101/91
f 99/111/92 98/103/92 120/104/92 121/112/92
f 89/113/93 111/114/93 132/115/93 110/116/93
f 107/117/94 129/118/94 128/110/94 106/109/94
f 100/119/95 99/111/95 121/112/95 122/120/95
f 93/121/96 92/100/96 114/99/96 115/122/96
f 108/123/97 130/124/97 129/118/97 107/117/97
f 101/106/98 100/119/98 122/120/98 123/107/98
f 94/125/99 93/121/99 115/122/99 116/126/99
f 109/127/100 131/128/100 130/124/100 108/123/100
f 102/129/101 124/130/101 112/98/101 90/97/101
f 95/131/102 94/125/102 116/126/102 117/132/102
f 110/116/103 132/115/103 131/128/103 109/127/103
f 103/92/104 125/91/104 124/130/104 102/129/104
f 96/94/105 95/131/105 117/132/105 118/95/105
f 91/105/106 113/108/106 111/114/106 89/113/106
f 149/133/107 148/134/107 170/135/107 171/136/107
f 142/137/108 164/138/108 163/139/108 141/140/108
f 146/141/106 137/142/106 159/143/106 168/144/106
f 150/145/109 149/133/109 171/136/109 172/146/109
f 143/147/94 165/148/94 164/138/94 142/137/94
f 134/149/110 156/150/110 155/151/110 133/152/110
f 151/153/111 150/145/111 172/146/111 173/154/111
f 144/155/112 166/156/112 165/148/112 143/147/112
f 136/157/113 135/158/113 157/159/113 158/160/113
f 152/161/89 151/153/89 173/154/89 174/162/89
f 145/163/114 167/164/114 166/156/114 144/155/114
f 138/165/115 160/166/115 159/143/115 137/142/115
f 153/167/116 152/161/116 174/162/116 175/168/116
f 133/152/117 155/151/117 167/164/117 145/163/117
f 139/169/118 161/170/118 160/166/118 138/165/118
f 154/171/119 153/167/119 175/168/119 176/172/119
f 147/173/120 146/141/120 168/144/120 169/174/120
f 140/175/121 162/176/121 161/170/121 139/169/121
f 135/158/122 154/171/122 176/172/122 157/159/122
f 148/134/123 147/173/123 169/174/123 170/135/123
f 141/140/124 163/139/124 162/176/124 140/175/124
f 134/149/87 136/157/87 158/160/87 156/150/87
f 120/104/125 165/148/125 166/156/125 121/112/125
f 108/123/126 107/117/126 152/161/126 153/167/126
f 95/131/127 140/175/127 139/169/127 94/125/127
f 121/112/128 166/156/128 167/164/128 122/120/128
f 109/127/129 108/123/129 153/167/129 154/171/129
f 96/94/130 141/140/130 140/175/130 95/131/130
f 122/120/131 167/164/131 155/151/131 123/107/131
f 110/116/132 109/127/132 154/171/132 135/158/132
f 97/93/133 142/137/133 141/140/133 96/94/133
f 112/98/134 124/130/134 169/174/134 168/144/134
f 91/105/135 89/113/135 136/157/135 134/149/135
f 98/103/136 143/147/136 142/137/136 97/93/136
f 124/130/137 125/91/137 170/135/137 169/174/137
f 90/97/138 92/100/138 137/142/138 146/141/138
f 99/111/139 144/155/139 143/147/139 98/103/139
f 125/91/140 126/90/140 171/136/140 170/135/140
f 123/107/141 155/151/141 156/150/141 113/108/141
f 100/119/142 145/163/142 144/155/142 99/111/142
f 126/90/143 127/102/143 172/146/143 171/136/143
f 132/115/144 111/114/144 158/160/144 157/159/144
f 101/106/145 133/152/145 145/163/145 100/119/145
f 127/102/146 128/110/146 173/154/146 172/146/146
f 114/99/147 159/143/147 160/166/147 115/122/147
f 102/129/148 90/97/148 146/141/148 147/173/148
f 128/110/149 129/118/149 174/162/149 173/154/149
f 115/122/150 160/166/150 161/170/150 116/126/150
f 103/92/151 102/129/151 147/173/151 148/134/151
f 129/118/152 130/124/152 175/168/152 174/162/152
f 116/126/153 161/170/153 162/176/153 117/132/153
f 104/89/154 103/92/154 148/134/154 149/133/154
f 130/124/155 131/128/155 176/172/155 175/168/155
f 91/105/156 134/149/156 133/152/156 101/106/156
f 117/132/157 162/176/157 163/139/157 118/95/157
f 105/101/158 104/89/158 149/133/158 150/145/158
f 131/128/159 132/115/159 157/159/159 176/172/159
f 89/113/160 110/116/160 135/158/160 136/157/160
f 118/95/161 163/139/161 164/138/161 119/96/161
f 106/109/162 105/101/162 150/145/162 151/153/162
f 111/114/163 113/108/163 156/150/163 158/160/163
f 93/121/164 138/165/164 137/142/164 92/100/164
f 119/96/165 164/138/165 165/148/165 120/104/165
f 107/117/166 106/109/166 151/153/166 152/161/166
f 114/99/167 112/98/167 168/144/167 159/143/167
f 94/125/168 139/169/168 138/165/168 93/121/168
g Cube_Cube.001
v -0.770052 -0.366542 4.964721
v -0.770052 0.366542 4.866076
v -0.770052 -0.366542 -4.964721
v -0.770052 0.366542 -4.866076
v 0.770052 -0.366542 4.964721
v 0.770052 0.366542 4.866076
v 0.770052 -0.366542 -4.964721
v 0.770052 0.366542 -4.866076
v -0.770052 -0.293233 5.049810
v -0.770052 -0.219925 5.116539
v -0.770052 -0.146617 5.160101
v -0.770052 -0.073308 5.175689
v -0.770052 0.000000 5.175689
v -0.770052 0.073308 5.160101
v -0.770052 0.146617 5.116539
v -0.770052 0.219925 5.049810
v -0.770052 0.293233 4.964721
v -0.770052 0.293233 -4.964721
v -0.770052 0.219925 -5.049810
v -0.770052 0.146617 -5.116539
v -0.770052 0.073308 -5.160101
v -0.770052 -0.000000 -5.175689
v -0.770052 -0.073308 -5.175689
v -0.770052 -0.146617 -5.160101
v -0.770052 -0.219925 -5.116539
v -0.770052 -0.293233 -5.049810
v 0.770052 0.293233 -4.964721
v 0.770052 0.219925 -5.049810
v 0.770052 0.146617 -5.116539
v 0.770052 0.073308 -5.160101
v 0.770052 -0.000000 -5.175689
v 0.770052 -0.073308 -5.175689
v 0.770052 -0.146617 -5.160101
v 0.770052 -0.219925 -5.116539
v 0.770052 -0.293233 -5.049810
v 0.770052 0.293233 4.964721
v 0.770052 0.219925 5.049810
v 0.770052 0.146617 5.116539
v 0.770052 0.073308 5.160101
v 0.770052 -0.000000 5.175689
v 0.770052 -0.073308 5.175689
v 0.770052 -0.146617 5.160101
v 0.770052 -0.219925 5.116539
v 0.770052 -0.293233 5.049810
vt 0.360552 1.000006
vt 0.280755 1.000007
vt 0.280752 0.000057
vt 0.360550 0.000056
vt -6.117880 0.000075
vt -6.038083 0.000075
vt -6.038081 1.000024
vt -6.117879 1.000024
vt -6.648104 0.000075
vt -6.575181 0.000075
vt -6.575181 1.000025
vt -6.648104 1.000025
vt -6.510819 0.000075
vt -6.510819 1.000025
vt -6.455452 0.000075
vt -6.455452 1.000025
vt -6.406791 0.000075
vt -6.406789 1.000025
vt -6.359193 0.000075
vt -6.359192 1.000025
vt -6.310532 0.000075
vt -6.310531 1.000025
vt -6.255166 0.000075
vt -6.255166 1.000025
vt -6.190804 0.000075
vt -6.190802 1.000024
vt 0.890776 1.000006
vt 0.817853 1.000006
vt 0.817853 0.000056
vt 0.890776 0.000056
vt 0.753490 1.000006
vt 0.753490 0.000056
vt 0.698124 1.000006
vt 0.698124 0.000056
vt 0.649462 1.000006
vt 0.649461 0.000056
vt 0.601866 1.000006
vt 0.601865 0.000056
vt 0.553204 1.000006
vt 0.553203 0.000056
vt 0.497837 1.000006
vt 0.497836 0.000056
vt 0.433474 1.000006
vt 0.433474 0.000056
vt 7.337711 0.000055
vt 7.337711 1.000005
vn 0.0000 0.7806 -0.6250
vn 0.0000 0.9494 -0.3141
vn 0.0000 0.7806 0.6250
vn 0.0000 0.9494 0.3141
vn 0.0000 -0.9374 0.3481
vn 0.0000 -0.7167 0.6974
vn 0.0000 -0.5950 0.8037
vn 0.0000 -0.3642 0.9313
vn 0.0000 -0.1046 0.9945
vn 0.0000 0.1046 0.9945
vn 0.0000 0.3642 0.9313
vn 0.0000 0.5950 0.8037
vn 0.0000 0.7167 0.6974
vn 0.0000 -0.9374 -0.3481
vn 0.0000 -0.7167 -0.6974
vn 0.0000 -0.5950 -0.8037
vn 0.0000 -0.3642 -0.9313
vn 0.0000 -0.1046 -0.9945
vn 0.0000 0.1046 -0.9945
vn 0.0000 0.3642 -0.9313
vn 0.0000 0.5950 -0.8037
vn 0.0000 0.7167 -0.6974
s 1
f 194/177/169 180/178/170 184/179/170 203/180/169
f 212/181/171 182/182/172 178/183/172 193/184/171
f 181/185/173 220/186/174 185/187/174 177/188/173
f 220/186/174 219/189/175 186/190/175 185/187/174
f 219/189/175 218/191/176 187/192/176 186/190/175
f 218/191/176 217/193/177 188/194/177 187/192/176
f 217/193/177 216/195/178 189/196/178 188/194/177
f 216/195/178 215/197/179 190/198/179 189/196/178
f 215/197/179 214/199/180 191/200/180 190/198/179
f 214/199/180 213/201/181 192/202/181 191/200/180
f 213/201/181 212/181/171 193/184/171 192/202/181
f 179/203/182 202/204/183 211/205/183 183/206/182
f 202/204/183 201/207/184 210/208/184 211/205/183
f 201/207/184 200/209/185 209/210/185 210/208/184
f 200/209/185 199/211/186 208/212/186 209/210/185
f 199/211/186 198/213/187 207/214/187 208/212/186
f 198/213/187 197/215/188 206/216/188 207/214/187
f 197/215/188 196/217/189 205/218/189 206/216/188
f 196/217/189 195/219/190 204/220/190 205/218/189
f 195/219/190 194/177/169 203/180/169 204/220/190
f 183/206/182 181/221/173 177/222/173 179/203/182
f 180/178/170 178/183/172 182/182/172 184/179/170
