# Blender v2.79 (sub 0) OBJ File: 'Cross.blend'
# www.blender.org
o Grid
v -0.000000 0.333333 1.000000
v -0.000000 0.111111 1.000000
v 0.000000 -0.111111 1.000000
v 0.000000 -0.333333 1.000000
v -0.000000 0.333333 0.777778
v -0.000000 0.111111 0.777778
v 0.000000 -0.111111 0.777778
v 0.000000 -0.333333 0.777778
v -0.000000 0.333333 0.555556
v -0.000000 0.111111 0.555556
v 0.000000 -0.111111 0.555556
v 0.000000 -0.333333 0.555556
v -0.000000 1.000000 0.333333
v -0.000000 0.777778 0.333333
v -0.000000 0.555556 0.333333
v -0.000000 0.333333 0.333333
v -0.000000 0.111111 0.333333
v 0.000000 -0.111111 0.333333
v 0.000000 -0.333333 0.333333
v 0.000000 -0.555556 0.333333
v 0.000000 -0.777778 0.333333
v 0.000000 -1.000000 0.333333
v -0.000000 1.000000 0.111111
v -0.000000 0.777778 0.111111
v -0.000000 0.555556 0.111111
v -0.000000 0.333333 0.111111
v -0.000000 0.111111 0.111111
v 0.000000 -0.111111 0.111111
v 0.000000 -0.333333 0.111111
v 0.000000 -0.555556 0.111111
v 0.000000 -0.777778 0.111111
v 0.000000 -1.000000 0.111111
v -0.000000 1.000000 -0.111111
v -0.000000 0.777778 -0.111111
v -0.000000 0.555556 -0.111111
v -0.000000 0.333333 -0.111111
v -0.000000 0.111111 -0.111111
v 0.000000 -0.111111 -0.111111
v 0.000000 -0.333333 -0.111111
v 0.000000 -0.555556 -0.111111
v 0.000000 -0.777778 -0.111111
v 0.000000 -1.000000 -0.111111
v -0.000000 1.000000 -0.333333
v -0.000000 0.777778 -0.333333
v -0.000000 0.555556 -0.333333
v -0.000000 0.333333 -0.333333
v -0.000000 0.111111 -0.333333
v 0.000000 -0.111111 -0.333333
v 0.000000 -0.333333 -0.333333
v 0.000000 -0.555556 -0.333333
v 0.000000 -0.777778 -0.333333
v 0.000000 -1.000000 -0.333333
v -0.000000 0.333333 -0.555556
v -0.000000 0.111111 -0.555556
v 0.000000 -0.111111 -0.555556
v 0.000000 -0.333333 -0.555556
v -0.000000 0.333333 -0.777778
v -0.000000 0.111111 -0.777778
v 0.000000 -0.111111 -0.777778
v 0.000000 -0.333333 -0.777778
v -0.000000 0.333333 -1.000000
v -0.000000 0.111111 -1.000000
v 0.000000 -0.111111 -1.000000
v 0.000000 -0.333333 -1.000000
vt 0.000000 0.666667
vt 0.000000 0.555556
vt 0.111111 0.555556
vt 0.111111 0.666667
vt 0.000000 0.444444
vt 0.111111 0.444444
vt 0.000000 0.333333
vt 0.111111 0.333333
vt 0.222222 0.555556
vt 0.222222 0.666667
vt 0.222222 0.444444
vt 0.222222 0.333333
vt 0.333333 0.555556
vt 0.333333 0.666667
vt 0.333333 0.444444
vt 0.333333 0.333333
vt 0.333333 1.000000
vt 0.333333 0.888889
vt 0.444444 0.888889
vt 0.444444 1.000000
vt 0.333333 0.777778
vt 0.444444 0.777778
vt 0.444444 0.666667
vt 0.444444 0.555556
vt 0.444444 0.444444
vt 0.444444 0.333333
vt 0.333333 0.222222
vt 0.444444 0.222222
vt 0.333333 0.111111
vt 0.444444 0.111111
vt 0.333333 0.000000
vt 0.444444 0.000000
vt 0.555556 0.888889
vt 0.555556 1.000000
vt 0.555556 0.777778
vt 0.555556 0.666667
vt 0.555556 0.555556
vt 0.555556 0.444444
vt 0.555556 0.333333
vt 0.555556 0.222222
vt 0.555556 0.111111
vt 0.555556 0.000000
vt 0.666667 0.888889
vt 0.666667 1.000000
vt 0.666667 0.777778
vt 0.666667 0.666667
vt 0.666667 0.555556
vt 0.666667 0.444444
vt 0.666667 0.333333
vt 0.666667 0.222222
vt 0.666667 0.111111
vt 0.666667 0.000000
vt 0.777778 0.555556
vt 0.777778 0.666667
vt 0.777778 0.444444
vt 0.777778 0.333333
vt 0.888889 0.555556
vt 0.888889 0.666667
vt 0.888889 0.444444
vt 0.888889 0.333333
vt 1.000000 0.555556
vt 1.000000 0.666667
vt 1.000000 0.444444
vt 1.000000 0.333333
vn 1.0000 0.0000 0.0000
s off
f 1/1/1 2/2/1 6/3/1 5/4/1
f 2/2/1 3/5/1 7/6/1 6/3/1
f 3/5/1 4/7/1 8/8/1 7/6/1
f 5/4/1 6/3/1 10/9/1 9/10/1
f 6/3/1 7/6/1 11/11/1 10/9/1
f 7/6/1 8/8/1 12/12/1 11/11/1
f 9/10/1 10/9/1 17/13/1 16/14/1
f 10/9/1 11/11/1 18/15/1 17/13/1
f 11/11/1 12/12/1 19/16/1 18/15/1
f 13/17/1 14/18/1 24/19/1 23/20/1
f 14/18/1 15/21/1 25/22/1 24/19/1
f 15/21/1 16/14/1 26/23/1 25/22/1
f 16/14/1 17/13/1 27/24/1 26/23/1
f 17/13/1 18/15/1 28/25/1 27/24/1
f 18/15/1 19/16/1 29/26/1 28/25/1
f 19/16/1 20/27/1 30/28/1 29/26/1
f 20/27/1 21/29/1 31/30/1 30/28/1
f 21/29/1 22/31/1 32/32/1 31/30/1
f 23/20/1 24/19/1 34/33/1 33/34/1
f 24/19/1 25/22/1 35/35/1 34/33/1
f 25/22/1 26/23/1 36/36/1 35/35/1
f 26/23/1 27/24/1 37/37/1 36/36/1
f 27/24/1 28/25/1 38/38/1 37/37/1
f 28/25/1 29/26/1 39/39/1 38/38/1
f 29/26/1 30/28/1 40/40/1 39/39/1
f 30/28/1 31/30/1 41/41/1 40/40/1
f 31/30/1 32/32/1 42/42/1 41/41/1
f 33/34/1 34/33/1 44/43/1 43/44/1
f 34/33/1 35/35/1 45/45/1 44/43/1
f 35/35/1 36/36/1 46/46/1 45/45/1
f 36/36/1 37/37/1 47/47/1 46/46/1
f 37/37/1 38/38/1 48/48/1 47/47/1
f 38/38/1 39/39/1 49/49/1 48/48/1
f 39/39/1 40/40/1 50/50/1 49/49/1
f 40/40/1 41/41/1 51/51/1 50/50/1
f 41/41/1 42/42/1 52/52/1 51/51/1
f 46/46/1 47/47/1 54/53/1 53/54/1
f 47/47/1 48/48/1 55/55/1 54/53/1
f 48/48/1 49/49/1 56/56/1 55/55/1
f 53/54/1 54/53/1 58/57/1 57/58/1
f 54/53/1 55/55/1 59/59/1 58/57/1
f 55/55/1 56/56/1 60/60/1 59/59/1
f 57/58/1 58/57/1 62/61/1 61/62/1
f 58/57/1 59/59/1 63/63/1 62/61/1
f 59/59/1 60/60/1 64/64/1 63/63/1
