# Blender v2.79 (sub 0) OBJ File: ''
# www.blender.org
o Cylinder
v 0.000000 -1.000000 -1.000000
v 0.000000 1.000000 -1.000000
v 0.098017 -1.000000 -0.995185
v 0.098017 1.000000 -0.995185
v 0.195090 -1.000000 -0.980785
v 0.195090 1.000000 -0.980785
v 0.290285 -1.000000 -0.956940
v 0.290285 1.000000 -0.956940
v 0.382683 -1.000000 -0.923880
v 0.382683 1.000000 -0.923880
v 0.471397 -1.000000 -0.881921
v 0.471397 1.000000 -0.881921
v 0.555570 -1.000000 -0.831470
v 0.555570 1.000000 -0.831470
v 0.634393 -1.000000 -0.773010
v 0.634393 1.000000 -0.773010
v 0.707107 -1.000000 -0.707107
v 0.707107 1.000000 -0.707107
v 0.773010 -1.000000 -0.634393
v 0.773010 1.000000 -0.634393
v 0.831470 -1.000000 -0.555570
v 0.831470 1.000000 -0.555570
v 0.881921 -1.000000 -0.471397
v 0.881921 1.000000 -0.471397
v 0.923880 -1.000000 -0.382683
v 0.923880 1.000000 -0.382683
v 0.956940 -1.000000 -0.290285
v 0.956940 1.000000 -0.290285
v 0.980785 -1.000000 -0.195090
v 0.980785 1.000000 -0.195090
v 0.995185 -1.000000 -0.098017
v 0.995185 1.000000 -0.098017
v 1.000000 -1.000000 0.000000
v 1.000000 1.000000 0.000000
v 0.995185 -1.000000 0.098017
v 0.995185 1.000000 0.098017
v 0.980785 -1.000000 0.195091
v 0.980785 1.000000 0.195091
v 0.956940 -1.000000 0.290285
v 0.956940 1.000000 0.290285
v 0.923879 -1.000000 0.382684
v 0.923879 1.000000 0.382684
v 0.881921 -1.000000 0.471397
v 0.881921 1.000000 0.471397
v 0.831469 -1.000000 0.555571
v 0.831469 1.000000 0.555571
v 0.773010 -1.000000 0.634394
v 0.773010 1.000000 0.634394
v 0.707106 -1.000000 0.707107
v 0.707106 1.000000 0.707107
v 0.634393 -1.000000 0.773011
v 0.634393 1.000000 0.773011
v 0.555570 -1.000000 0.831470
v 0.555570 1.000000 0.831470
v 0.471396 -1.000000 0.881922
v 0.471396 1.000000 0.881922
v 0.382683 -1.000000 0.923880
v 0.382683 1.000000 0.923880
v 0.290284 -1.000000 0.956941
v 0.290284 1.000000 0.956941
v 0.195090 -1.000000 0.980785
v 0.195090 1.000000 0.980785
v 0.098016 -1.000000 0.995185
v 0.098016 1.000000 0.995185
v -0.000001 -1.000000 1.000000
v -0.000001 1.000000 1.000000
v -0.098018 -1.000000 0.995185
v -0.098018 1.000000 0.995185
v -0.195091 -1.000000 0.980785
v -0.195091 1.000000 0.980785
v -0.290286 -1.000000 0.956940
v -0.290286 1.000000 0.956940
v -0.382684 -1.000000 0.923879
v -0.382684 1.000000 0.923879
v -0.471398 -1.000000 0.881921
v -0.471398 1.000000 0.881921
v -0.555571 -1.000000 0.831469
v -0.555571 1.000000 0.831469
v -0.634394 -1.000000 0.773010
v -0.634394 1.000000 0.773010
v -0.707108 -1.000000 0.707106
v -0.707108 1.000000 0.707106
v -0.773011 -1.000000 0.634393
v -0.773011 1.000000 0.634393
v -0.831470 -1.000000 0.555570
v -0.831470 1.000000 0.555570
v -0.881922 -1.000000 0.471396
v -0.881922 1.000000 0.471396
v -0.923880 -1.000000 0.382683
v -0.923880 1.000000 0.382683
v -0.956940 -1.000000 0.290285
v -0.956940 1.000000 0.290285
v -0.980785 -1.000000 0.195090
v -0.980785 1.000000 0.195090
v -0.995185 -1.000000 0.098017
v -0.995185 1.000000 0.098017
v -1.000000 -1.000000 0.000000
v -1.000000 1.000000 0.000000
v -0.995185 -1.000000 -0.098016
v -0.995185 1.000000 -0.098016
v -0.980785 -1.000000 -0.195089
v -0.980785 1.000000 -0.195089
v -0.956941 -1.000000 -0.290284
v -0.956941 1.000000 -0.290284
v -0.923880 -1.000000 -0.382682
v -0.923880 1.000000 -0.382682
v -0.881922 -1.000000 -0.471395
v -0.881922 1.000000 -0.471395
v -0.831471 -1.000000 -0.555569
v -0.831471 1.000000 -0.555569
v -0.773012 -1.000000 -0.634392
v -0.773012 1.000000 -0.634392
v -0.707108 -1.000000 -0.707105
v -0.707108 1.000000 -0.707105
v -0.634395 -1.000000 -0.773009
v -0.634395 1.000000 -0.773009
v -0.555572 -1.000000 -0.831468
v -0.555572 1.000000 -0.831468
v -0.471399 -1.000000 -0.881920
v -0.471399 1.000000 -0.881920
v -0.382686 -1.000000 -0.923878
v -0.382686 1.000000 -0.923878
v -0.290288 -1.000000 -0.956939
v -0.290288 1.000000 -0.956939
v -0.195093 -1.000000 -0.980785
v -0.195093 1.000000 -0.980785
v -0.098021 -1.000000 -0.995184
v -0.098021 1.000000 -0.995184
vt 0.578121 0.000021
vt 0.578125 0.999991
vt 0.562500 0.999992
vt 0.562496 0.000022
vt 0.546875 0.999992
vt 0.546871 0.000022
vt 0.531250 0.999993
vt 0.531247 0.000023
vt 0.515625 0.999993
vt 0.515622 0.000023
vt 0.500000 0.999994
vt 0.499997 0.000024
vt 0.484375 0.999994
vt 0.484372 0.000024
vt 0.468750 0.999995
vt 0.468747 0.000025
vt 0.453125 0.999995
vt 0.453122 0.000025
vt 0.437500 0.999996
vt 0.437497 0.000026
vt 0.421875 0.999996
vt 0.421873 0.000026
vt 0.406250 0.999997
vt 0.406248 0.000027
vt 0.390625 0.999997
vt 0.390623 0.000027
vt 0.375000 0.999997
vt 0.374998 0.000027
vt 0.359375 0.999998
vt 0.359373 0.000027
vt 0.343750 0.999998
vt 0.343748 0.000028
vt 0.328125 0.999998
vt 0.328123 0.000028
vt 0.312500 0.999998
vt 0.312499 0.000028
vt 0.296875 0.999999
vt 0.296874 0.000029
vt 0.281250 0.999999
vt 0.281249 0.000029
vt 0.265625 0.999999
vt 0.265624 0.000029
vt 0.250000 0.999999
vt 0.249999 0.000029
vt 0.234375 0.999999
vt 0.234374 0.000029
vt 0.218750 1.000000
vt 0.218749 0.000029
vt 0.203125 1.000000
vt 0.203125 0.000029
vt 0.187500 1.000000
vt 0.187500 0.000030
vt 0.171875 1.000000
vt 0.171875 0.000030
vt 0.156250 1.000000
vt 0.156250 0.000030
vt 0.140625 1.000000
vt 0.140625 0.000030
vt 0.125000 1.000000
vt 0.125000 0.000030
vt 0.109375 1.000000
vt 0.109375 0.000030
vt 0.093750 1.000000
vt 0.093750 0.000030
vt 0.078125 1.000000
vt 0.078126 0.000029
vt 0.062500 1.000000
vt 0.062501 0.000029
vt 0.046875 1.000000
vt 0.046876 0.000029
vt 0.031250 1.000000
vt 0.031251 0.000029
vt 0.015625 1.000000
vt 0.015626 0.000029
vt 0.000000 0.999999
vt 0.000001 0.000029
vt 0.999993 0.000000
vt 1.000000 0.999969
vt 0.984375 0.999970
vt 0.984368 0.000001
vt 0.968750 0.999971
vt 0.968744 0.000002
vt 0.953125 0.999972
vt 0.953119 0.000003
vt 0.937500 0.999973
vt 0.937494 0.000004
vt 0.921875 0.999974
vt 0.921869 0.000005
vt 0.906250 0.999975
vt 0.906244 0.000006
vt 0.890625 0.999976
vt 0.890619 0.000007
vt 0.875000 0.999977
vt 0.874994 0.000007
vt 0.859375 0.999978
vt 0.859370 0.000008
vt 0.843750 0.999979
vt 0.843745 0.000009
vt 0.828125 0.999980
vt 0.828120 0.000010
vt 0.812500 0.999980
vt 0.812495 0.000011
vt 0.796875 0.999981
vt 0.796870 0.000012
vt 0.781250 0.999982
vt 0.781245 0.000013
vt 0.765625 0.999983
vt 0.765620 0.000013
vt 0.750000 0.999984
vt 0.749995 0.000014
vt 0.734375 0.999984
vt 0.734371 0.000015
vt 0.718750 0.999985
vt 0.718746 0.000016
vt 0.703126 0.999986
vt 0.703121 0.000016
vt 0.687501 0.999986
vt 0.687496 0.000017
vt 0.671876 0.999987
vt 0.671871 0.000018
vt 0.656251 0.999988
vt 0.656246 0.000018
vt 0.640626 0.999988
vt 0.640621 0.000019
vt 0.625001 0.999989
vt 0.624997 0.000019
vt 0.609376 0.999990
vt 0.609372 0.000020
vt 0.593751 0.999990
vt 0.593747 0.000021
vn 0.0491 0.0000 -0.9988
vn 0.1467 0.0000 -0.9892
vn 0.2430 0.0000 -0.9700
vn 0.3369 0.0000 -0.9415
vn 0.4276 0.0000 -0.9040
vn 0.5141 0.0000 -0.8577
vn 0.5957 0.0000 -0.8032
vn 0.6716 0.0000 -0.7410
vn 0.7410 0.0000 -0.6716
vn 0.8032 0.0000 -0.5957
vn 0.8577 0.0000 -0.5141
vn 0.9040 0.0000 -0.4276
vn 0.9415 0.0000 -0.3369
vn 0.9700 0.0000 -0.2430
vn 0.9892 0.0000 -0.1467
vn 0.9988 0.0000 -0.0491
vn 0.9988 0.0000 0.0491
vn 0.9892 0.0000 0.1467
vn 0.9700 0.0000 0.2430
vn 0.9415 0.0000 0.3369
vn 0.9040 0.0000 0.4276
vn 0.8577 0.0000 0.5141
vn 0.8032 0.0000 0.5957
vn 0.7410 0.0000 0.6716
vn 0.6716 0.0000 0.7410
vn 0.5957 0.0000 0.8032
vn 0.5141 0.0000 0.8577
vn 0.4276 0.0000 0.9040
vn 0.3369 0.0000 0.9415
vn 0.2430 0.0000 0.9700
vn 0.1467 0.0000 0.9892
vn 0.0491 0.0000 0.9988
vn -0.0491 0.0000 0.9988
vn -0.1467 0.0000 0.9892
vn -0.2430 0.0000 0.9700
vn -0.3369 0.0000 0.9415
vn -0.4276 0.0000 0.9040
vn -0.5141 0.0000 0.8577
vn -0.5957 0.0000 0.8032
vn -0.6716 0.0000 0.7410
vn -0.7410 0.0000 0.6716
vn -0.8032 0.0000 0.5957
vn -0.8577 0.0000 0.5141
vn -0.9040 0.0000 0.4276
vn -0.9415 0.0000 0.3369
vn -0.9700 0.0000 0.2430
vn -0.9892 0.0000 0.1467
vn -0.9988 0.0000 0.0491
vn -0.9988 0.0000 -0.0491
vn -0.9892 0.0000 -0.1467
vn -0.9700 0.0000 -0.2430
vn -0.9415 0.0000 -0.3369
vn -0.9040 0.0000 -0.4276
vn -0.8577 0.0000 -0.5141
vn -0.8032 0.0000 -0.5957
vn -0.7410 0.0000 -0.6716
vn -0.6716 0.0000 -0.7410
vn -0.5957 0.0000 -0.8032
vn -0.5141 0.0000 -0.8577
vn -0.4276 0.0000 -0.9040
vn -0.3369 0.0000 -0.9415
vn -0.2430 0.0000 -0.9700
vn -0.1467 0.0000 -0.9892
vn -0.0491 0.0000 -0.9988
s off
f 1/1/1 2/2/1 4/3/1 3/4/1
f 3/4/2 4/3/2 6/5/2 5/6/2
f 5/6/3 6/5/3 8/7/3 7/8/3
f 7/8/4 8/7/4 10/9/4 9/10/4
f 9/10/5 10/9/5 12/11/5 11/12/5
f 11/12/6 12/11/6 14/13/6 13/14/6
f 13/14/7 14/13/7 16/15/7 15/16/7
f 15/16/8 16/15/8 18/17/8 17/18/8
f 17/18/9 18/17/9 20/19/9 19/20/9
f 19/20/10 20/19/10 22/21/10 21/22/10
f 21/22/11 22/21/11 24/23/11 23/24/11
f 23/24/12 24/23/12 26/25/12 25/26/12
f 25/26/13 26/25/13 28/27/13 27/28/13
f 27/28/14 28/27/14 30/29/14 29/30/14
f 29/30/15 30/29/15 32/31/15 31/32/15
f 31/32/16 32/31/16 34/33/16 33/34/16
f 33/34/17 34/33/17 36/35/17 35/36/17
f 35/36/18 36/35/18 38/37/18 37/38/18
f 37/38/19 38/37/19 40/39/19 39/40/19
f 39/40/20 40/39/20 42/41/20 41/42/20
f 41/42/21 42/41/21 44/43/21 43/44/21
f 43/44/22 44/43/22 46/45/22 45/46/22
f 45/46/23 46/45/23 48/47/23 47/48/23
f 47/48/24 48/47/24 50/49/24 49/50/24
f 49/50/25 50/49/25 52/51/25 51/52/25
f 51/52/26 52/51/26 54/53/26 53/54/26
f 53/54/27 54/53/27 56/55/27 55/56/27
f 55/56/28 56/55/28 58/57/28 57/58/28
f 57/58/29 58/57/29 60/59/29 59/60/29
f 59/60/30 60/59/30 62/61/30 61/62/30
f 61/62/31 62/61/31 64/63/31 63/64/31
f 63/64/32 64/63/32 66/65/32 65/66/32
f 65/66/33 66/65/33 68/67/33 67/68/33
f 67/68/34 68/67/34 70/69/34 69/70/34
f 69/70/35 70/69/35 72/71/35 71/72/35
f 71/72/36 72/71/36 74/73/36 73/74/36
f 73/74/37 74/73/37 76/75/37 75/76/37
f 75/77/38 76/78/38 78/79/38 77/80/38
f 77/80/39 78/79/39 80/81/39 79/82/39
f 79/82/40 80/81/40 82/83/40 81/84/40
f 81/84/41 82/83/41 84/85/41 83/86/41
f 83/86/42 84/85/42 86/87/42 85/88/42
f 85/88/43 86/87/43 88/89/43 87/90/43
f 87/90/44 88/89/44 90/91/44 89/92/44
f 89/92/45 90/91/45 92/93/45 91/94/45
f 91/94/46 92/93/46 94/95/46 93/96/46
f 93/96/47 94/95/47 96/97/47 95/98/47
f 95/98/48 96/97/48 98/99/48 97/100/48
f 97/100/49 98/99/49 100/101/49 99/102/49
f 99/102/50 100/101/50 102/103/50 101/104/50
f 101/104/51 102/103/51 104/105/51 103/106/51
f 103/106/52 104/105/52 106/107/52 105/108/52
f 105/108/53 106/107/53 108/109/53 107/110/53
f 107/110/54 108/109/54 110/111/54 109/112/54
f 109/112/55 110/111/55 112/113/55 111/114/55
f 111/114/56 112/113/56 114/115/56 113/116/56
f 113/116/57 114/115/57 116/117/57 115/118/57
f 115/118/58 116/117/58 118/119/58 117/120/58
f 117/120/59 118/119/59 120/121/59 119/122/59
f 119/122/60 120/121/60 122/123/60 121/124/60
f 121/124/61 122/123/61 124/125/61 123/126/61
f 123/126/62 124/125/62 126/127/62 125/128/62
f 125/128/63 126/127/63 128/129/63 127/130/63
f 127/130/64 128/129/64 2/2/64 1/1/64
