# Blender v2.79 (sub 0) OBJ File: ''
# www.blender.org
o Cube
v 0.446740 -1.000000 -1.000000
v 1.000000 -1.000000 -0.446740
v 0.533289 -1.000000 -0.993188
v 0.617707 -1.000000 -0.972922
v 0.697915 -1.000000 -0.939698
v 0.771938 -1.000000 -0.894337
v 0.837954 -1.000000 -0.837954
v 0.894337 -1.000000 -0.771938
v 0.939698 -1.000000 -0.697915
v 0.972922 -1.000000 -0.617707
v 0.993189 -1.000000 -0.533289
v 1.000000 -1.000000 0.446740
v 0.446740 -1.000000 1.000000
v 0.993189 -1.000000 0.533289
v 0.972922 -1.000000 0.617707
v 0.939698 -1.000000 0.697915
v 0.894337 -1.000000 0.771938
v 0.837954 -1.000000 0.837954
v 0.771938 -1.000000 0.894337
v 0.697915 -1.000000 0.939698
v 0.617707 -1.000000 0.972921
v 0.533289 -1.000000 0.993188
v -0.446740 -1.000000 1.000000
v -1.000000 -1.000000 0.446740
v -0.533289 -1.000000 0.993188
v -0.617707 -1.000000 0.972921
v -0.697915 -1.000000 0.939698
v -0.771938 -1.000000 0.894337
v -0.837954 -1.000000 0.837954
v -0.894337 -1.000000 0.771938
v -0.939698 -1.000000 0.697915
v -0.972922 -1.000000 0.617707
v -0.993188 -1.000000 0.533289
v -1.000000 -1.000000 -0.446740
v -0.446740 -1.000000 -1.000000
v -0.993188 -1.000000 -0.533289
v -0.972921 -1.000000 -0.617707
v -0.939698 -1.000000 -0.697915
v -0.894336 -1.000000 -0.771938
v -0.837954 -1.000000 -0.837954
v -0.771938 -1.000000 -0.894337
v -0.697914 -1.000000 -0.939699
v -0.617706 -1.000000 -0.972922
v -0.533289 -1.000000 -0.993189
v 1.000000 1.000000 -0.446740
v 0.446741 1.000000 -1.000000
v 0.993189 1.000000 -0.533289
v 0.972922 1.000000 -0.617706
v 0.939698 1.000000 -0.697914
v 0.894337 1.000000 -0.771938
v 0.837954 1.000000 -0.837953
v 0.771938 1.000000 -0.894336
v 0.697915 1.000000 -0.939698
v 0.617707 1.000000 -0.972921
v 0.533289 1.000000 -0.993188
v 0.446739 1.000000 1.000000
v 1.000000 1.000000 0.446741
v 0.533288 1.000000 0.993189
v 0.617706 1.000000 0.972922
v 0.697914 1.000000 0.939699
v 0.771937 1.000000 0.894337
v 0.837953 1.000000 0.837955
v 0.894336 1.000000 0.771939
v 0.939698 1.000000 0.697915
v 0.972921 1.000000 0.617707
v 0.993188 1.000000 0.533290
v -1.000000 1.000000 0.446740
v -0.446740 1.000000 1.000000
v -0.993189 1.000000 0.533289
v -0.972922 1.000000 0.617707
v -0.939699 1.000000 0.697915
v -0.894337 1.000000 0.771938
v -0.837954 1.000000 0.837954
v -0.771938 1.000000 0.894337
v -0.697915 1.000000 0.939698
v -0.617707 1.000000 0.972921
v -0.533289 1.000000 0.993188
v -0.446740 1.000000 -1.000000
v -1.000000 1.000000 -0.446740
v -0.533289 1.000000 -0.993188
v -0.617707 1.000000 -0.972921
v -0.697915 1.000000 -0.939698
v -0.771938 1.000000 -0.894337
v -0.837954 1.000000 -0.837954
v -0.894337 1.000000 -0.771938
v -0.939698 1.000000 -0.697915
v -0.972922 1.000000 -0.617707
v -0.993188 1.000000 -0.533289
vt 0.866265 1.000000
vt 0.866265 0.000000
vt 1.000000 0.000000
vt 1.000000 1.000000
vt 0.250000 0.000000
vt 0.250000 1.000000
vt 0.116265 1.000000
vt 0.116265 0.000000
vt 0.500000 0.000000
vt 0.500000 1.000000
vt 0.366265 1.000000
vt 0.366265 0.000000
vt 0.854706 1.000000
vt 0.854706 0.000000
vt 0.843101 1.000000
vt 0.843101 0.000000
vt 0.831462 1.000000
vt 0.831462 0.000000
vt 0.819803 1.000000
vt 0.819803 0.000000
vt 0.808133 1.000000
vt 0.808133 0.000000
vt 0.796462 1.000000
vt 0.796463 0.000000
vt 0.784803 1.000000
vt 0.784803 0.000000
vt 0.773164 1.000000
vt 0.773164 0.000000
vt 0.761559 1.000000
vt 0.761559 0.000000
vt 0.750000 1.000000
vt 0.750000 0.000000
vt 0.616265 0.000000
vt 0.616265 1.000000
vt 0.604706 1.000000
vt 0.604706 0.000000
vt 0.593101 1.000000
vt 0.593101 0.000000
vt 0.581462 1.000000
vt 0.581462 0.000000
vt 0.569803 1.000000
vt 0.569803 0.000000
vt 0.558133 1.000000
vt 0.558133 0.000000
vt 0.546463 1.000000
vt 0.546463 0.000000
vt 0.534803 1.000000
vt 0.534803 0.000000
vt 0.523164 1.000000
vt 0.523164 0.000000
vt 0.511559 1.000000
vt 0.511559 0.000000
vt 0.354706 1.000000
vt 0.354706 0.000000
vt 0.343101 1.000000
vt 0.343101 0.000000
vt 0.331462 1.000000
vt 0.331462 0.000000
vt 0.319803 1.000000
vt 0.319803 0.000000
vt 0.308133 1.000000
vt 0.308133 0.000000
vt 0.296463 1.000000
vt 0.296463 0.000000
vt 0.284803 1.000000
vt 0.284803 0.000000
vt 0.273164 1.000000
vt 0.273164 0.000000
vt 0.261559 1.000000
vt 0.261559 0.000000
vt 0.104707 1.000000
vt 0.104707 0.000000
vt 0.093101 1.000000
vt 0.093101 0.000000
vt 0.081462 1.000000
vt 0.081462 0.000000
vt 0.069803 1.000000
vt 0.069803 0.000000
vt 0.058133 1.000000
vt 0.058133 0.000000
vt 0.046463 1.000000
vt 0.046463 0.000000
vt 0.034803 1.000000
vt 0.034803 0.000000
vt 0.023164 1.000000
vt 0.023164 0.000000
vt 0.011559 1.000000
vt 0.011559 0.000000
vt 0.000000 1.000000
vt 0.000000 0.000000
vn 0.0000 0.0000 -1.0000
vn -1.0000 -0.0000 -0.0000
vn -0.0000 -0.0000 1.0000
vn 0.0785 0.0000 -0.9969
vn 0.2334 0.0000 -0.9724
vn 0.3827 0.0000 -0.9239
vn 0.5225 0.0000 -0.8526
vn 0.6494 0.0000 -0.7604
vn 0.7604 0.0000 -0.6494
vn 0.8526 -0.0000 -0.5225
vn 0.9239 0.0000 -0.3827
vn 0.9724 0.0000 -0.2334
vn 0.9969 -0.0000 -0.0785
vn 0.9969 0.0000 0.0785
vn 0.9724 0.0000 0.2334
vn 0.9239 0.0000 0.3827
vn 0.8526 0.0000 0.5225
vn 0.7604 0.0000 0.6494
vn 0.6494 0.0000 0.7604
vn 0.5225 -0.0000 0.8526
vn 0.3827 -0.0000 0.9239
vn 0.2334 -0.0000 0.9724
vn 0.0785 -0.0000 0.9969
vn -0.0785 0.0000 0.9969
vn -0.2334 0.0000 0.9724
vn -0.3827 0.0000 0.9239
vn -0.5225 -0.0000 0.8526
vn -0.6494 -0.0000 0.7604
vn -0.7604 -0.0000 0.6494
vn -0.8526 -0.0000 0.5225
vn -0.9239 -0.0000 0.3827
vn -0.9724 -0.0000 0.2334
vn -0.9969 -0.0000 0.0785
vn -0.9969 -0.0000 -0.0785
vn -0.9724 -0.0000 -0.2334
vn -0.9239 -0.0000 -0.3827
vn -0.8526 -0.0000 -0.5225
vn -0.7604 -0.0000 -0.6494
vn -0.6494 0.0000 -0.7604
vn -0.5225 0.0000 -0.8526
vn -0.3827 0.0000 -0.9239
vn -0.2334 0.0000 -0.9724
vn -0.0785 0.0000 -0.9969
vn 1.0000 0.0000 0.0000
s off
f 46/1/1 1/2/1 35/3/1 78/4/1
f 24/5/2 67/6/2 79/7/2 34/8/2
f 13/9/3 56/10/3 68/11/3 23/12/3
f 1/2/4 46/1/4 55/13/4 3/14/4
f 3/14/5 55/13/5 54/15/5 4/16/5
f 4/16/6 54/15/6 53/17/6 5/18/6
f 5/18/7 53/17/7 52/19/7 6/20/7
f 6/20/8 52/19/8 51/21/8 7/22/8
f 7/22/9 51/21/9 50/23/9 8/24/9
f 8/24/10 50/23/10 49/25/10 9/26/10
f 9/26/11 49/25/11 48/27/11 10/28/11
f 10/28/12 48/27/12 47/29/12 11/30/12
f 11/30/13 47/29/13 45/31/13 2/32/13
f 12/33/14 57/34/14 66/35/14 14/36/14
f 14/36/15 66/35/15 65/37/15 15/38/15
f 15/38/16 65/37/16 64/39/16 16/40/16
f 16/40/17 64/39/17 63/41/17 17/42/17
f 17/42/18 63/41/18 62/43/18 18/44/18
f 18/44/19 62/43/19 61/45/19 19/46/19
f 19/46/20 61/45/20 60/47/20 20/48/20
f 20/48/21 60/47/21 59/49/21 21/50/21
f 21/50/22 59/49/22 58/51/22 22/52/22
f 22/52/23 58/51/23 56/10/23 13/9/23
f 23/12/24 68/11/24 77/53/24 25/54/24
f 25/54/25 77/53/25 76/55/25 26/56/25
f 26/56/26 76/55/26 75/57/26 27/58/26
f 27/58/27 75/57/27 74/59/27 28/60/27
f 28/60/28 74/59/28 73/61/28 29/62/28
f 29/62/29 73/61/29 72/63/29 30/64/29
f 30/64/30 72/63/30 71/65/30 31/66/30
f 31/66/31 71/65/31 70/67/31 32/68/31
f 32/68/32 70/67/32 69/69/32 33/70/32
f 33/70/33 69/69/33 67/6/33 24/5/33
f 34/8/34 79/7/34 88/71/34 36/72/34
f 36/72/35 88/71/35 87/73/35 37/74/35
f 37/74/36 87/73/36 86/75/36 38/76/36
f 38/76/37 86/75/37 85/77/37 39/78/37
f 39/78/38 85/77/38 84/79/38 40/80/38
f 40/80/39 84/79/39 83/81/39 41/82/39
f 41/82/40 83/81/40 82/83/40 42/84/40
f 42/84/41 82/83/41 81/85/41 43/86/41
f 43/86/42 81/85/42 80/87/42 44/88/42
f 44/88/43 80/87/43 78/89/43 35/90/43
f 2/32/44 45/31/44 57/34/44 12/33/44
