# Blender v2.79 (sub 0) OBJ File: ''
# www.blender.org
o Cylinder
v -0.000000 -1.000000 -0.649423
v 0.000000 1.000000 -1.000000
v 0.063654 -1.000000 -0.646295
v 0.098017 1.000000 -0.995185
v 0.126696 -1.000000 -0.636944
v 0.195090 1.000000 -0.980785
v 0.188517 -1.000000 -0.621459
v 0.290285 1.000000 -0.956940
v 0.248523 -1.000000 -0.599988
v 0.382683 1.000000 -0.923880
v 0.306136 -1.000000 -0.572740
v 0.471397 1.000000 -0.881921
v 0.360800 -1.000000 -0.539975
v 0.555570 1.000000 -0.831470
v 0.411989 -1.000000 -0.502011
v 0.634393 1.000000 -0.773010
v 0.459211 -1.000000 -0.459211
v 0.707107 1.000000 -0.707107
v 0.502010 -1.000000 -0.411989
v 0.773010 1.000000 -0.634393
v 0.539975 -1.000000 -0.360800
v 0.831470 1.000000 -0.555570
v 0.572739 -1.000000 -0.306136
v 0.881921 1.000000 -0.471397
v 0.599988 -1.000000 -0.248523
v 0.923880 1.000000 -0.382683
v 0.621459 -1.000000 -0.188517
v 0.956940 1.000000 -0.290285
v 0.636944 -1.000000 -0.126696
v 0.980785 1.000000 -0.195090
v 0.646295 -1.000000 -0.063654
v 0.995185 1.000000 -0.098017
v 0.649423 -1.000000 0.000000
v 1.000000 1.000000 0.000000
v 0.646295 -1.000000 0.063655
v 0.995185 1.000000 0.098017
v 0.636944 -1.000000 0.126696
v 0.980785 1.000000 0.195091
v 0.621459 -1.000000 0.188518
v 0.956940 1.000000 0.290285
v 0.599988 -1.000000 0.248524
v 0.923879 1.000000 0.382684
v 0.572739 -1.000000 0.306136
v 0.881921 1.000000 0.471397
v 0.539975 -1.000000 0.360800
v 0.831469 1.000000 0.555571
v 0.502010 -1.000000 0.411990
v 0.773010 1.000000 0.634394
v 0.459211 -1.000000 0.459212
v 0.707106 1.000000 0.707107
v 0.411989 -1.000000 0.502011
v 0.634393 1.000000 0.773011
v 0.360799 -1.000000 0.539976
v 0.555570 1.000000 0.831470
v 0.306135 -1.000000 0.572740
v 0.471396 1.000000 0.881922
v 0.248523 -1.000000 0.599989
v 0.382683 1.000000 0.923880
v 0.188517 -1.000000 0.621459
v 0.290284 1.000000 0.956941
v 0.126695 -1.000000 0.636944
v 0.195090 1.000000 0.980785
v 0.063654 -1.000000 0.646296
v 0.098016 1.000000 0.995185
v -0.000001 -1.000000 0.649423
v -0.000001 1.000000 1.000000
v -0.063655 -1.000000 0.646296
v -0.098018 1.000000 0.995185
v -0.126697 -1.000000 0.636944
v -0.195091 1.000000 0.980785
v -0.188518 -1.000000 0.621459
v -0.290286 1.000000 0.956940
v -0.248524 -1.000000 0.599988
v -0.382684 1.000000 0.923879
v -0.306137 -1.000000 0.572739
v -0.471398 1.000000 0.881921
v -0.360801 -1.000000 0.539975
v -0.555571 1.000000 0.831469
v -0.411990 -1.000000 0.502010
v -0.634394 1.000000 0.773010
v -0.459212 -1.000000 0.459211
v -0.707108 1.000000 0.707106
v -0.502011 -1.000000 0.411989
v -0.773011 1.000000 0.634393
v -0.539976 -1.000000 0.360800
v -0.831470 1.000000 0.555570
v -0.572740 -1.000000 0.306136
v -0.881922 1.000000 0.471396
v -0.599989 -1.000000 0.248523
v -0.923880 1.000000 0.382683
v -0.621459 -1.000000 0.188517
v -0.956940 1.000000 0.290285
v -0.636944 -1.000000 0.126696
v -0.980785 1.000000 0.195090
v -0.646296 -1.000000 0.063655
v -0.995185 1.000000 0.098017
v -0.649423 -1.000000 0.000000
v -1.000000 1.000000 0.000000
v -0.646296 -1.000000 -0.063654
v -0.995185 1.000000 -0.098016
v -0.636945 -1.000000 -0.126695
v -0.980785 1.000000 -0.195089
v -0.621459 -1.000000 -0.188517
v -0.956941 1.000000 -0.290284
v -0.599989 -1.000000 -0.248522
v -0.923880 1.000000 -0.382682
v -0.572740 -1.000000 -0.306135
v -0.881922 1.000000 -0.471395
v -0.539976 -1.000000 -0.360799
v -0.831471 1.000000 -0.555569
v -0.502012 -1.000000 -0.411988
v -0.773012 1.000000 -0.634392
v -0.459212 -1.000000 -0.459210
v -0.707108 1.000000 -0.707105
v -0.411991 -1.000000 -0.502010
v -0.634395 1.000000 -0.773009
v -0.360801 -1.000000 -0.539974
v -0.555572 1.000000 -0.831468
v -0.306137 -1.000000 -0.572739
v -0.471399 1.000000 -0.881920
v -0.248525 -1.000000 -0.599988
v -0.382686 1.000000 -0.923878
v -0.188520 -1.000000 -0.621458
v -0.290288 1.000000 -0.956939
v -0.126698 -1.000000 -0.636944
v -0.195093 1.000000 -0.980785
v -0.063657 -1.000000 -0.646295
v -0.098021 1.000000 -0.995184
vt 0.499999 0.000000
vt 0.499999 1.000000
vt 0.484374 1.000000
vt 0.484374 0.000000
vt 0.468749 1.000000
vt 0.468749 0.000000
vt 0.453124 1.000000
vt 0.453124 0.000000
vt 0.437499 1.000000
vt 0.437499 0.000000
vt 0.421874 1.000000
vt 0.421874 0.000000
vt 0.406249 1.000000
vt 0.406249 0.000000
vt 0.390624 1.000000
vt 0.390624 0.000000
vt 0.374999 1.000000
vt 0.374999 0.000000
vt 0.359374 1.000000
vt 0.359374 0.000000
vt 0.343749 1.000000
vt 0.343749 0.000000
vt 0.328124 1.000000
vt 0.328124 0.000000
vt 0.312499 1.000000
vt 0.312499 0.000000
vt 0.296875 1.000000
vt 0.296875 0.000000
vt 0.281250 1.000000
vt 0.281250 0.000000
vt 0.265625 1.000000
vt 0.265625 0.000000
vt 0.250000 1.000000
vt 0.250000 0.000000
vt 0.234375 1.000000
vt 0.234375 0.000000
vt 0.218750 1.000000
vt 0.218750 0.000000
vt 0.203125 1.000000
vt 0.203125 0.000000
vt 0.187500 1.000000
vt 0.187500 0.000000
vt 0.171875 1.000000
vt 0.171875 0.000000
vt 0.156250 1.000000
vt 0.156250 0.000000
vt 0.140625 1.000000
vt 0.140625 0.000000
vt 0.125000 1.000000
vt 0.125000 0.000000
vt 0.109375 1.000000
vt 0.109375 0.000000
vt 0.093750 1.000000
vt 0.093750 0.000000
vt 0.078125 1.000000
vt 0.078125 0.000000
vt 0.062500 1.000000
vt 0.062500 0.000000
vt 0.046875 1.000000
vt 0.046875 0.000000
vt 0.031250 1.000000
vt 0.031250 0.000000
vt 0.015625 1.000000
vt 0.015625 0.000000
vt 0.000000 1.000000
vt 0.000000 0.000000
vt 1.000000 0.000000
vt 1.000000 1.000000
vt 0.984375 1.000000
vt 0.984375 0.000000
vt 0.968750 1.000000
vt 0.968750 0.000000
vt 0.953125 1.000000
vt 0.953125 0.000000
vt 0.937500 1.000000
vt 0.937500 0.000000
vt 0.921875 1.000000
vt 0.921875 0.000000
vt 0.906250 1.000000
vt 0.906250 0.000000
vt 0.890625 1.000000
vt 0.890625 0.000000
vt 0.875000 1.000000
vt 0.875000 0.000000
vt 0.859375 1.000000
vt 0.859375 0.000000
vt 0.843750 1.000000
vt 0.843750 0.000000
vt 0.828125 1.000000
vt 0.828125 0.000000
vt 0.812500 1.000000
vt 0.812500 0.000000
vt 0.796875 1.000000
vt 0.796875 0.000000
vt 0.781250 1.000000
vt 0.781250 0.000000
vt 0.765625 1.000000
vt 0.765625 0.000000
vt 0.749999 1.000000
vt 0.749999 0.000000
vt 0.734374 1.000000
vt 0.734374 0.000000
vt 0.718749 1.000000
vt 0.718749 0.000000
vt 0.703125 1.000000
vt 0.703125 0.000000
vt 0.687499 1.000000
vt 0.687499 0.000000
vt 0.671874 1.000000
vt 0.671874 0.000000
vt 0.656249 1.000000
vt 0.656249 0.000000
vt 0.640625 1.000000
vt 0.640625 0.000000
vt 0.625000 1.000000
vt 0.625000 0.000000
vt 0.609375 1.000000
vt 0.609375 0.000000
vt 0.593750 1.000000
vt 0.593750 0.000000
vt 0.578125 1.000000
vt 0.578125 0.000000
vt 0.562500 1.000000
vt 0.562500 0.000000
vt 0.546875 1.000000
vt 0.546875 0.000000
vt 0.531250 1.000000
vt 0.531250 0.000000
vt 0.515625 1.000000
vt 0.515625 0.000000
vn 0.0000 -0.1726 -0.9850
vn 0.0965 -0.1726 -0.9802
vn 0.1921 -0.1726 -0.9660
vn 0.2859 -0.1726 -0.9426
vn 0.3769 -0.1726 -0.9100
vn 0.4643 -0.1726 -0.8686
vn 0.5472 -0.1726 -0.8190
vn 0.6248 -0.1726 -0.7614
vn 0.6965 -0.1726 -0.6965
vn 0.7614 -0.1726 -0.6248
vn 0.8190 -0.1726 -0.5472
vn 0.8686 -0.1726 -0.4643
vn 0.9100 -0.1726 -0.3769
vn 0.9426 -0.1726 -0.2859
vn 0.9660 -0.1726 -0.1921
vn 0.9802 -0.1726 -0.0965
vn 0.9850 -0.1726 0.0000
vn 0.9802 -0.1726 0.0965
vn 0.9660 -0.1726 0.1921
vn 0.9426 -0.1726 0.2859
vn 0.9100 -0.1726 0.3769
vn 0.8686 -0.1726 0.4643
vn 0.8190 -0.1726 0.5472
vn 0.7614 -0.1726 0.6248
vn 0.7614 -0.1726 0.6249
vn 0.6965 -0.1726 0.6965
vn 0.6248 -0.1726 0.7614
vn 0.5472 -0.1726 0.8190
vn 0.4643 -0.1726 0.8686
vn 0.3769 -0.1726 0.9100
vn 0.2859 -0.1726 0.9426
vn 0.1921 -0.1726 0.9660
vn 0.0965 -0.1726 0.9802
vn 0.0000 -0.1726 0.9850
vn -0.0965 -0.1726 0.9802
vn -0.1921 -0.1726 0.9660
vn -0.2859 -0.1726 0.9426
vn -0.3769 -0.1726 0.9100
vn -0.4643 -0.1726 0.8686
vn -0.5472 -0.1726 0.8190
vn -0.6249 -0.1726 0.7614
vn -0.6965 -0.1726 0.6965
vn -0.7614 -0.1726 0.6248
vn -0.8190 -0.1726 0.5472
vn -0.8686 -0.1726 0.4643
vn -0.9100 -0.1726 0.3769
vn -0.9426 -0.1726 0.2859
vn -0.9660 -0.1726 0.1921
vn -0.9802 -0.1726 0.0965
vn -0.9850 -0.1726 0.0000
vn -0.9802 -0.1726 -0.0965
vn -0.9660 -0.1726 -0.1921
vn -0.9426 -0.1726 -0.2859
vn -0.9100 -0.1726 -0.3769
vn -0.8686 -0.1726 -0.4643
vn -0.8190 -0.1726 -0.5472
vn -0.7614 -0.1726 -0.6248
vn -0.6965 -0.1726 -0.6965
vn -0.6249 -0.1726 -0.7614
vn -0.5472 -0.1726 -0.8190
vn -0.4643 -0.1726 -0.8686
vn -0.3769 -0.1726 -0.9100
vn -0.2859 -0.1726 -0.9426
vn -0.1921 -0.1726 -0.9660
vn -0.0965 -0.1726 -0.9802
s 1
f 1/1/1 2/2/1 4/3/2 3/4/2
f 3/4/2 4/3/2 6/5/3 5/6/3
f 5/6/3 6/5/3 8/7/4 7/8/4
f 7/8/4 8/7/4 10/9/5 9/10/5
f 9/10/5 10/9/5 12/11/6 11/12/6
f 11/12/6 12/11/6 14/13/7 13/14/7
f 13/14/7 14/13/7 16/15/8 15/16/8
f 15/16/8 16/15/8 18/17/9 17/18/9
f 17/18/9 18/17/9 20/19/10 19/20/10
f 19/20/10 20/19/10 22/21/11 21/22/11
f 21/22/11 22/21/11 24/23/12 23/24/12
f 23/24/12 24/23/12 26/25/13 25/26/13
f 25/26/13 26/25/13 28/27/14 27/28/14
f 27/28/14 28/27/14 30/29/15 29/30/15
f 29/30/15 30/29/15 32/31/16 31/32/16
f 31/32/16 32/31/16 34/33/17 33/34/17
f 33/34/17 34/33/17 36/35/18 35/36/18
f 35/36/18 36/35/18 38/37/19 37/38/19
f 37/38/19 38/37/19 40/39/20 39/40/20
f 39/40/20 40/39/20 42/41/21 41/42/21
f 41/42/21 42/41/21 44/43/22 43/44/22
f 43/44/22 44/43/22 46/45/23 45/46/23
f 45/46/23 46/45/23 48/47/24 47/48/25
f 47/48/25 48/47/24 50/49/26 49/50/26
f 49/50/26 50/49/26 52/51/27 51/52/27
f 51/52/27 52/51/27 54/53/28 53/54/28
f 53/54/28 54/53/28 56/55/29 55/56/29
f 55/56/29 56/55/29 58/57/30 57/58/30
f 57/58/30 58/57/30 60/59/31 59/60/31
f 59/60/31 60/59/31 62/61/32 61/62/32
f 61/62/32 62/61/32 64/63/33 63/64/33
f 63/64/33 64/63/33 66/65/34 65/66/34
f 65/67/34 66/68/34 68/69/35 67/70/35
f 67/70/35 68/69/35 70/71/36 69/72/36
f 69/72/36 70/71/36 72/73/37 71/74/37
f 71/74/37 72/73/37 74/75/38 73/76/38
f 73/76/38 74/75/38 76/77/39 75/78/39
f 75/78/39 76/77/39 78/79/40 77/80/40
f 77/80/40 78/79/40 80/81/41 79/82/41
f 79/82/41 80/81/41 82/83/42 81/84/42
f 81/84/42 82/83/42 84/85/43 83/86/43
f 83/86/43 84/85/43 86/87/44 85/88/44
f 85/88/44 86/87/44 88/89/45 87/90/45
f 87/90/45 88/89/45 90/91/46 89/92/46
f 89/92/46 90/91/46 92/93/47 91/94/47
f 91/94/47 92/93/47 94/95/48 93/96/48
f 93/96/48 94/95/48 96/97/49 95/98/49
f 95/98/49 96/97/49 98/99/50 97/100/50
f 97/100/50 98/99/50 100/101/51 99/102/51
f 99/102/51 100/101/51 102/103/52 101/104/52
f 101/104/52 102/103/52 104/105/53 103/106/53
f 103/106/53 104/105/53 106/107/54 105/108/54
f 105/108/54 106/107/54 108/109/55 107/110/55
f 107/110/55 108/109/55 110/111/56 109/112/56
f 109/112/56 110/111/56 112/113/57 111/114/57
f 111/114/57 112/113/57 114/115/58 113/116/58
f 113/116/58 114/115/58 116/117/59 115/118/59
f 115/118/59 116/117/59 118/119/60 117/120/60
f 117/120/60 118/119/60 120/121/61 119/122/61
f 119/122/61 120/121/61 122/123/62 121/124/62
f 121/124/62 122/123/62 124/125/63 123/126/63
f 123/126/63 124/125/63 126/127/64 125/128/64
f 125/128/64 126/127/64 128/129/65 127/130/65
f 127/130/65 128/129/65 2/2/1 1/1/1
