# Blender v2.79 (sub 0) OBJ File: 'Triangle.blend'
# www.blender.org
mtllib Triangle.mtl
o Plane
v -0.000000 0.352952 -0.610228
v -0.000000 0.100000 -0.767675
v 0.000000 -0.149958 -0.923259
v -0.000000 0.598004 -0.457698
v -0.000000 0.844279 -0.304407
v 0.000000 -0.242923 -0.756025
v -0.000000 0.000000 -0.604820
v -0.000000 0.242923 -0.453615
v -0.000000 0.485847 -0.302410
v -0.000000 0.728770 -0.151205
v -0.000000 0.838230 0.308172
v -0.000000 0.586767 0.464692
v -0.000000 0.336181 0.620667
v -0.000000 0.096118 0.770092
v 0.000000 -0.140819 0.917570
v -0.000000 0.728770 0.151205
v -0.000000 0.485847 0.302410
v -0.000000 0.242923 0.453615
v 0.000000 0.000000 0.604820
v 0.000000 -0.242923 0.756025
v 0.000000 -0.666667 0.604820
v 0.000000 -0.666667 0.302410
v 0.000000 -0.666667 -0.000000
v 0.000000 -0.666667 -0.302410
v 0.000000 -0.666667 -0.604820
v 0.000000 -0.485847 0.604820
v 0.000000 -0.485847 0.302410
v 0.000000 -0.485847 -0.000000
v 0.000000 -0.485847 -0.302410
v 0.000000 -0.485847 -0.604820
vt 0.000000 0.462723
vt 0.000000 0.231651
vt 0.738782 0.231651
vt 0.738782 0.462723
vt 0.000000 0.697537
vt 0.738782 0.697536
vt 0.000000 0.930932
vt 0.738782 0.930932
vt 0.000000 0.000000
vt 0.738782 0.000000
vt 0.669010 0.000646
vt 0.752895 0.000646
vt 0.752895 1.000000
vt 0.669010 1.000000
vt 0.836630 0.000646
vt 0.836630 1.000000
vt 0.918581 0.000646
vt 0.918581 1.000000
vt 1.000000 0.000646
vt 1.000000 1.000000
vt 0.669007 0.998061
vt 0.583363 0.998061
vt 0.583363 0.000098
vt 0.669007 0.000098
vt 0.497719 0.998061
vt 0.497719 0.000098
vt 0.412074 0.998061
vt 0.412074 0.000098
vt 0.326430 0.998061
vt 0.326430 0.000098
vn 1.0000 0.0000 -0.0000
usemtl None
s off
f 1/1/1 4/2/1 9/3/1 8/4/1
f 2/5/1 1/1/1 8/4/1 7/6/1
f 3/7/1 2/5/1 7/6/1 6/8/1
f 4/2/1 5/9/1 10/10/1 9/3/1
f 11/11/1 12/12/1 17/13/1 16/14/1
f 12/12/1 13/15/1 18/16/1 17/13/1
f 13/15/1 14/17/1 19/18/1 18/16/1
f 14/17/1 15/19/1 20/20/1 19/18/1
f 21/21/1 22/22/1 27/23/1 26/24/1
f 22/22/1 23/25/1 28/26/1 27/23/1
f 23/25/1 24/27/1 29/28/1 28/26/1
f 24/27/1 25/29/1 30/30/1 29/28/1
